<svg width="250" height="250" viewBox="0 0 250 250" fill="none" xmlns="http://www.w3.org/2000/svg">
<path d="M141.631 216.6C120.011 216.6 100.786 218.37 88.5206 221.1C80.6166 222.888 72.5012 223.561 64.4106 223.1C61.2456 222.91 57.8506 222.81 54.3206 222.81C37.1706 222.81 23.2656 225.21 23.2656 228.175C23.2656 231.14 37.1706 233.535 54.3206 233.535C57.8506 233.535 61.2456 233.435 64.4106 233.245C72.5012 232.783 80.6166 233.457 88.5206 235.245C100.786 237.985 120.021 239.745 141.631 239.745C178.681 239.745 208.716 234.555 208.716 228.16C208.716 221.765 178.681 216.6 141.631 216.6Z" fill="#190E09"/>
<path d="M95.0606 108.35C94.4056 82.905 93.1156 72.375 85.0156 62.73C76.9156 53.085 70.6156 34.61 82.5156 23.915C94.4156 13.22 122.116 1.87997 127.711 19.055C133.306 36.23 142.651 87.61 136.001 110.25C129.351 132.89 95.5556 127.545 95.0606 108.35Z" fill="url(#paint0_radial_5581_4718)"/>
<path d="M172.835 164.56C172.835 164.56 186.65 130.88 192.16 110.33C197.67 89.78 204.5 83.07 215.5 77.025C226.5 70.98 231.38 62.23 226.5 48.94C221.62 35.65 213.225 23 197.345 26.26C181.465 29.52 178.225 41.72 177.25 48.2C176.275 54.68 170.41 62.875 166.555 66.765C162.7 70.655 157.67 77.79 155.215 95.315C152.76 112.84 151 155.45 151 155.45L172.835 164.56Z" fill="url(#paint1_radial_5581_4718)"/>
<path d="M82.5 145.735C82.5 158.959 87.7531 171.641 97.1037 180.991C106.454 190.342 119.136 195.595 132.36 195.595C159.895 195.595 174.78 172.245 182.22 145.735C182.22 145.735 194.32 99.2999 156.72 86.9399C119.12 74.5799 101.65 102.235 101.65 102.235C101.65 102.235 82.5 131.115 82.5 145.735Z" fill="url(#paint2_radial_5581_4718)"/>
<path d="M163.116 144.815C163.116 144.815 171.216 148.035 172.836 164.56C174.456 181.085 169.836 191.66 165.336 201.765C160.836 211.87 158.581 216.41 163.116 220.3C167.651 224.19 167.281 230.345 157.746 229.7C148.211 229.055 144.991 225.2 138.826 227.615C132.661 230.03 126.911 231.8 129.456 223.115C132.001 214.43 138.901 201.82 137.236 193.715C135.571 185.61 140.186 178.15 151.001 172.32C161.816 166.49 156.001 148.23 156.001 148.23L163.116 144.815Z" fill="url(#paint3_radial_5581_4718)"/>
<path d="M76.9154 144.89C68.1654 149.655 48.7204 153.42 41.9154 151.86C35.1104 150.3 27.9804 146.86 23.7654 148.25C19.5504 149.64 22.1454 155.635 26.0354 158.8C29.9254 161.965 34.4604 167.8 32.1954 170.06C29.9304 172.32 28.0004 180.63 38.0254 178.755C48.0504 176.88 77.7054 172.665 88.0254 166.83C98.3454 160.995 76.9154 144.89 76.9154 144.89Z" fill="url(#paint4_linear_5581_4718)"/>
<path d="M132.999 40.9249C133.074 62.8249 123.794 70.3699 109.499 72.4249C100.704 73.6899 93.3592 70.5649 87.9442 66.7299C87.0585 65.3297 86.0761 63.9931 85.0042 62.7299C76.9092 53.0849 70.6092 34.6199 82.5042 23.9199C94.3992 13.2199 122.104 1.88492 127.694 19.0649C129.324 23.9999 131.249 31.7999 132.999 40.9249Z" fill="url(#paint5_radial_5581_4718)"/>
<path d="M215.501 77.025C211.746 79.085 208.501 81.22 205.596 83.955C190.686 85.99 183.626 83.05 176.756 77.26C170.386 71.875 172.676 61.41 174.806 55.26C175.598 53.7245 176.247 52.1194 176.746 50.465C176.964 49.7343 177.131 48.9891 177.246 48.235C178.216 41.735 181.456 29.535 197.341 26.295C213.226 23.055 221.646 35.65 226.501 48.945C231.356 62.24 226.501 71 215.501 77.025Z" fill="url(#paint6_radial_5581_4718)"/>
<path d="M176.741 50.4551C176.242 52.1095 175.593 53.7146 174.801 55.2501C175.351 53.6144 175.999 52.0132 176.741 50.4551Z" fill="url(#paint7_radial_5581_4718)"/>
<path d="M169.54 103.885C172.32 110.31 165.945 117.72 158.97 118.275C157.31 118.408 155.641 118.213 154.057 117.701C152.472 117.188 151.005 116.369 149.737 115.29C147.177 113.109 145.588 110.002 145.32 106.65C145.051 103.298 146.125 99.9773 148.305 97.4174C150.485 94.8575 153.593 93.2685 156.945 93C163.92 92.45 166.29 96.385 169.54 103.885Z" fill="#B86B3E"/>
<path d="M165.039 108.27C163.169 104.02 161.664 101.805 157.564 102.135C155.884 102.27 154.293 102.95 153.034 104.072C151.775 105.193 150.916 106.696 150.589 108.35C150.172 107.228 150.02 106.025 150.147 104.834C150.273 103.644 150.674 102.499 151.317 101.49C151.961 100.48 152.829 99.6341 153.855 99.0173C154.881 98.4005 156.036 98.0301 157.229 97.9351C161.489 97.5951 162.939 99.9951 164.919 104.575C165.425 105.747 165.467 107.067 165.039 108.27Z" fill="#6F4026"/>
<path d="M63.6145 112.375C61.8895 119.155 69.3645 125.455 76.3395 124.9C79.6905 124.632 82.7976 123.043 84.9772 120.484C87.1569 117.924 88.2305 114.604 87.962 111.253C87.6935 107.902 86.1048 104.795 83.5454 102.615C80.986 100.435 77.6655 99.3618 74.3145 99.6304C67.3395 100.19 65.6245 104.45 63.6145 112.375Z" fill="#B86B3E"/>
<path d="M68.7551 116C69.9251 111.5 71.0551 109.08 75.1551 108.75C76.8357 108.617 78.5137 109.036 79.9348 109.943C81.3559 110.85 82.4426 112.195 83.0301 113.775C83.1725 113.078 83.2146 112.364 83.1551 111.655C83.0743 110.642 82.7946 109.654 82.3319 108.748C81.8692 107.843 81.2327 107.038 80.4587 106.378C79.6846 105.719 78.7883 105.218 77.8208 104.906C76.8533 104.593 75.8337 104.474 74.8201 104.555C70.5601 104.895 69.5051 107.495 68.2851 112.335C67.9717 113.572 68.1396 114.882 68.7551 116Z" fill="#6F4026"/>
<path d="M120.115 175.25C120.115 175.25 98.6148 176.59 86.6498 169.205C74.6848 161.82 72.9498 152.095 74.1498 136.63C75.3498 121.165 79.4048 114.585 84.7648 108.085C90.1248 101.585 108.145 96.9198 116.44 96.2548C124.735 95.5898 144.44 95.1498 150.75 100.715C157.06 106.28 160.945 114.31 164.615 129.38C168.285 144.45 168.115 154.325 157.49 163.525C146.865 172.725 125.415 174.82 125.415 174.82L120.115 175.25Z" fill="url(#paint8_radial_5581_4718)"/>
<path d="M99.8249 136.97C104.122 136.97 107.605 133.487 107.605 129.19C107.605 124.893 104.122 121.41 99.8249 121.41C95.5281 121.41 92.0449 124.893 92.0449 129.19C92.0449 133.487 95.5281 136.97 99.8249 136.97Z" fill="#190E09"/>
<path d="M102.871 129.46C104.422 129.46 105.681 128.202 105.681 126.65C105.681 125.098 104.422 123.84 102.871 123.84C101.319 123.84 100.061 125.098 100.061 126.65C100.061 128.202 101.319 129.46 102.871 129.46Z" fill="white"/>
<path d="M137.235 133.97C141.532 133.97 145.015 130.487 145.015 126.19C145.015 121.893 141.532 118.41 137.235 118.41C132.938 118.41 129.455 121.893 129.455 126.19C129.455 130.487 132.938 133.97 137.235 133.97Z" fill="#190E09"/>
<path d="M138.826 126.58C140.378 126.58 141.636 125.322 141.636 123.77C141.636 122.218 140.378 120.96 138.826 120.96C137.274 120.96 136.016 122.218 136.016 123.77C136.016 125.322 137.274 126.58 138.826 126.58Z" fill="white"/>
<path d="M122.531 172.04C135.135 171.03 144.629 161.179 143.737 150.037C142.844 138.894 131.903 130.68 119.298 131.689C106.694 132.699 97.2002 142.55 98.0927 153.693C98.9853 164.836 109.927 173.05 122.531 172.04Z" fill="#6F4026"/>
<path d="M128.23 139.5L128.295 140.34C128.597 144.099 127.394 147.824 124.95 150.695C124.274 151.487 123.312 151.978 122.275 152.06L117.46 152.445C116.946 152.487 116.429 152.428 115.938 152.27C115.447 152.112 114.993 151.859 114.6 151.525C111.726 149.077 109.941 145.588 109.64 141.825L109.575 140.99C109.529 140.375 109.729 139.767 110.13 139.299C110.53 138.831 111.1 138.54 111.715 138.49L125.715 137.37C126.33 137.323 126.939 137.52 127.41 137.919C127.88 138.318 128.175 138.886 128.23 139.5Z" fill="#190E09"/>
<path d="M120.605 161.5C120.605 161.5 123.47 161.455 125.46 159.97C127.205 158.67 127.71 156.095 127.71 156.095" stroke="#190E09" stroke-width="4.4" stroke-linecap="square" stroke-linejoin="bevel"/>
<path d="M203.435 37.3851C205.015 34.8501 204.571 31.719 202.442 30.3915C200.313 29.0641 197.306 30.043 195.725 32.578C194.145 35.1129 194.589 38.2441 196.718 39.5715C198.847 40.899 201.854 39.92 203.435 37.3851Z" fill="#6F4026"/>
<path d="M194.095 76.8204C201.816 76.8204 208.075 70.5613 208.075 62.8404C208.075 55.1194 201.816 48.8604 194.095 48.8604C186.374 48.8604 180.115 55.1194 180.115 62.8404C180.115 70.5613 186.374 76.8204 194.095 76.8204Z" fill="url(#paint9_linear_5581_4718)"/>
<path d="M212.355 46.4784C214.473 44.3792 214.761 41.2352 212.998 39.4561C211.235 37.6771 208.089 37.9367 205.97 40.0359C203.852 42.1351 203.564 45.2791 205.327 47.0582C207.09 48.8372 210.236 48.5776 212.355 46.4784Z" fill="#6F4026"/>
<path d="M216.34 58.0446C218.844 58.0446 220.875 56.0142 220.875 53.5096C220.875 51.005 218.844 48.9746 216.34 48.9746C213.835 48.9746 211.805 51.005 211.805 53.5096C211.805 56.0142 213.835 58.0446 216.34 58.0446Z" fill="#6F4026"/>
<path d="M217.913 66.0011C219.311 64.6152 219.525 62.5632 218.389 61.4177C217.254 60.2722 215.2 60.467 213.802 61.8529C212.403 63.2388 212.19 65.2909 213.325 66.4364C214.46 67.5819 216.514 67.387 217.913 66.0011Z" fill="#6F4026"/>
<path d="M116.935 26.194C119.689 25.892 121.629 22.9903 121.27 19.7128C120.91 16.4353 118.387 14.0232 115.634 14.3252C112.88 14.6272 110.94 17.529 111.299 20.8065C111.659 24.084 114.182 26.496 116.935 26.194Z" fill="#6F4026"/>
<path d="M107.89 65.8946C116.428 65.8946 123.35 58.9729 123.35 50.4346C123.35 41.8963 116.428 34.9746 107.89 34.9746C99.3514 34.9746 92.4297 41.8963 92.4297 50.4346C92.4297 58.9729 99.3514 65.8946 107.89 65.8946Z" fill="url(#paint10_linear_5581_4718)"/>
<path d="M104.197 29.3372C106.805 28.4031 108.017 25.1296 106.905 22.0256C105.793 18.9216 102.778 17.1626 100.17 18.0967C97.563 19.0308 96.3507 22.3043 97.4627 25.4083C98.5747 28.5123 101.59 30.2713 104.197 29.3372Z" fill="#6F4026"/>
<path d="M90.1556 35.5349C92.9253 35.5349 95.1706 33.2896 95.1706 30.5199C95.1706 27.7502 92.9253 25.5049 90.1556 25.5049C87.3859 25.5049 85.1406 27.7502 85.1406 30.5199C85.1406 33.2896 87.3859 35.5349 90.1556 35.5349Z" fill="#6F4026"/>
<path d="M86.9825 44.5586C88.6593 43.9521 89.4182 41.8002 88.6774 39.7521C87.9366 37.7041 85.9767 36.5355 84.2999 37.142C82.623 37.7486 81.8642 39.9005 82.605 41.9485C83.3458 43.9966 85.3056 45.1652 86.9825 44.5586Z" fill="#6F4026"/>
<path d="M128.175 139.41L128.25 140.26C128.383 141.8 128.26 143.351 127.885 144.85C126.55 144.54 124.935 144.65 123.855 146.405C122.265 149.01 123.325 150.765 123.955 151.48C123.45 151.789 122.88 151.975 122.29 152.025L117.475 152.44C116.943 152.486 116.407 152.421 115.9 152.25C116.4 151.485 117.25 149.515 115.17 147.155C113.745 145.535 112.04 145.795 110.75 146.39C110.116 144.955 109.722 143.424 109.585 141.86L109.5 141C109.471 140.653 109.52 140.304 109.643 139.978C109.766 139.652 109.959 139.357 110.21 139.115C111.105 139.765 113.435 140.84 118.945 140.405C124.23 139.905 126.395 138.55 127.235 137.735C127.504 137.93 127.727 138.181 127.889 138.47C128.051 138.759 128.149 139.08 128.175 139.41Z" fill="url(#paint11_radial_5581_4718)"/>
<path d="M141.63 87.1946C146.523 87.1946 150.49 83.2279 150.49 78.3346C150.49 73.4414 146.523 69.4746 141.63 69.4746C136.736 69.4746 132.77 73.4414 132.77 78.3346C132.77 83.2279 136.736 87.1946 141.63 87.1946Z" fill="url(#paint12_radial_5581_4718)"/>
<defs>
<radialGradient id="paint0_radial_5581_4718" cx="0" cy="0" r="1" gradientUnits="userSpaceOnUse" gradientTransform="translate(140.106 113.035) scale(126.375 126.375)">
<stop stop-color="#6F4026"/>
<stop offset="0.52" stop-color="#B86B3E"/>
<stop offset="0.62" stop-color="#BD7043"/>
<stop offset="0.74" stop-color="#CB7D50"/>
<stop offset="0.87" stop-color="#E29466"/>
<stop offset="0.92" stop-color="#ED9F71"/>
</radialGradient>
<radialGradient id="paint1_radial_5581_4718" cx="0" cy="0" r="1" gradientUnits="userSpaceOnUse" gradientTransform="translate(221.6 51.44) scale(111.045 111.045)">
<stop stop-color="#AB633A"/>
<stop offset="1" stop-color="#6F4026"/>
</radialGradient>
<radialGradient id="paint2_radial_5581_4718" cx="0" cy="0" r="1" gradientUnits="userSpaceOnUse" gradientTransform="translate(216.49 94.6999) scale(86.68 86.68)">
<stop offset="0.35" stop-color="#AB633A"/>
<stop offset="1" stop-color="#6F4026"/>
</radialGradient>
<radialGradient id="paint3_radial_5581_4718" cx="0" cy="0" r="1" gradientUnits="userSpaceOnUse" gradientTransform="translate(128.766 160.025) scale(52.605 52.605)">
<stop offset="0.33" stop-color="#B86B3E"/>
<stop offset="0.5" stop-color="#C07346"/>
<stop offset="0.76" stop-color="#D6895B"/>
<stop offset="0.97" stop-color="#ED9F71"/>
</radialGradient>
<linearGradient id="paint4_linear_5581_4718" x1="2.0054" y1="154.215" x2="85.2904" y2="166.205" gradientUnits="userSpaceOnUse">
<stop offset="0.28" stop-color="#AB633A"/>
<stop offset="1" stop-color="#6F4026"/>
</linearGradient>
<radialGradient id="paint5_radial_5581_4718" cx="0" cy="0" r="1" gradientUnits="userSpaceOnUse" gradientTransform="translate(50.3392 -11.0801) scale(175.255 175.255)">
<stop offset="0.33" stop-color="#B86B3E"/>
<stop offset="0.5" stop-color="#C07346"/>
<stop offset="0.76" stop-color="#D6895B"/>
<stop offset="0.97" stop-color="#ED9F71"/>
</radialGradient>
<radialGradient id="paint6_radial_5581_4718" cx="0" cy="0" r="1" gradientUnits="userSpaceOnUse" gradientTransform="translate(148.856 -3.67999) scale(136.965 136.965)">
<stop offset="0.33" stop-color="#B86B3E"/>
<stop offset="0.5" stop-color="#C07346"/>
<stop offset="0.76" stop-color="#D6895B"/>
<stop offset="0.97" stop-color="#ED9F71"/>
</radialGradient>
<radialGradient id="paint7_radial_5581_4718" cx="0" cy="0" r="1" gradientUnits="userSpaceOnUse" gradientTransform="translate(148.856 -3.6299) scale(136.92 136.92)">
<stop offset="0.33" stop-color="#B86B3E"/>
<stop offset="0.5" stop-color="#C07346"/>
<stop offset="0.76" stop-color="#D6895B"/>
<stop offset="0.97" stop-color="#ED9F71"/>
</radialGradient>
<radialGradient id="paint8_radial_5581_4718" cx="0" cy="0" r="1" gradientUnits="userSpaceOnUse" gradientTransform="translate(34.6199 116.471) rotate(-4.58) scale(174.095 174.095)">
<stop offset="0.33" stop-color="#B86B3E"/>
<stop offset="0.5" stop-color="#C07346"/>
<stop offset="0.76" stop-color="#D6895B"/>
<stop offset="0.97" stop-color="#ED9F71"/>
</radialGradient>
<linearGradient id="paint9_linear_5581_4718" x1="225.564" y1="71.4263" x2="185.681" y2="61.3554" gradientUnits="userSpaceOnUse">
<stop stop-color="#AB633A"/>
<stop offset="1" stop-color="#6F4026"/>
</linearGradient>
<linearGradient id="paint10_linear_5581_4718" x1="74.2519" y1="43.5544" x2="118.584" y2="52.5145" gradientUnits="userSpaceOnUse">
<stop stop-color="#AB633A"/>
<stop offset="1" stop-color="#6F4026"/>
</linearGradient>
<radialGradient id="paint11_radial_5581_4718" cx="0" cy="0" r="1" gradientUnits="userSpaceOnUse" gradientTransform="translate(116.814 130.548) rotate(-4.93) scale(22.165 22.165)">
<stop stop-color="#6F4026"/>
<stop offset="1" stop-color="#190E09"/>
</radialGradient>
<radialGradient id="paint12_radial_5581_4718" cx="0" cy="0" r="1" gradientUnits="userSpaceOnUse" gradientTransform="translate(149.395 78.4696) scale(15.865)">
<stop offset="0.35" stop-color="#AB633A"/>
<stop offset="1" stop-color="#6F4026"/>
</radialGradient>
</defs>
</svg>
