<svg width="272" height="271" viewBox="0 0 272 271" fill="none" xmlns="http://www.w3.org/2000/svg">
<path d="M241.174 237.011C241.174 247.022 194.188 255.136 136.227 255.136C124.124 255.136 112.498 254.783 101.68 254.133C60.6936 251.667 31.2793 244.919 31.2793 237.011C31.2793 227.006 78.2653 218.887 136.227 218.887C194.188 218.887 241.174 227.006 241.174 237.011Z" fill="#190E09"/>
<path d="M94.2655 88.3137C108.542 69.7447 164.005 73.4574 167.284 79.1755C179.674 77.5495 193.191 120.861 196.649 134.671C198.926 143.777 197.495 157.153 198.942 176.828C199.499 184.085 199.691 191.366 199.516 198.643C199.429 201.482 199.919 204.309 200.956 206.952C201.993 209.596 203.555 212.002 205.549 214.025C208.985 217.494 213.018 221.917 215.728 226.009C221.31 234.437 212.953 236.898 212.953 236.898C208.384 243.944 200.66 242.86 200.66 242.86C178.173 251.64 162.72 237.586 157.1 230.209C151.479 222.833 154.969 217.928 154.969 217.928C153.213 209.494 152.861 193.337 152.861 193.337C151.132 193.662 149.517 193.928 147.983 194.139C146.249 194.562 137.441 193.662 135.712 193.337C135.712 193.337 135.36 209.494 133.604 217.928C133.604 217.928 137.116 222.843 131.495 230.22C125.875 237.597 110.423 251.651 87.9403 242.87C87.9403 242.87 80.2114 243.922 75.6424 236.908C75.6424 236.908 67.2847 234.448 72.8673 226.02C76.1952 220.995 81.5393 215.472 85.2791 211.825C86.6017 210.545 87.6358 208.998 88.3125 207.286C88.9893 205.575 89.2929 203.739 89.2032 201.901C88.8463 193.545 88.9966 185.176 89.6531 176.839L92.2547 131.343C92.2547 131.343 78.5963 125.381 65.2468 130.638C51.8973 135.896 40.64 148.557 34.8514 148.557C29.0629 148.557 28.0114 135.907 41.7132 125.018C55.4149 114.129 82.2873 111.37 99.6855 94.0697L94.2655 88.3137Z" fill="url(#paint0_radial_5409_5199)"/>
<path d="M103.756 99.6036C103.756 99.6036 93.5985 124.135 101.159 146.969C108.72 169.803 116.796 173.76 124.877 178.584C133.197 183.549 152.98 184.546 161.408 174.719C170.98 163.554 180.714 150.199 180.806 127.999C180.898 105.799 175.17 96.6172 175.17 96.6172L103.756 99.6036Z" fill="#6F4026"/>
<path d="M37.8658 151.001C42.1205 136.611 55.0797 124.985 75.4535 124.308C95.8273 123.63 102.646 138.356 105.03 151.001C107.415 163.646 100.792 179.467 86.0171 186.838C71.2422 194.209 27.6762 185.429 37.8658 151.001Z" fill="url(#paint1_radial_5409_5199)"/>
<path d="M52.4777 144.524C59.8055 134.226 74.1252 132.389 81.9354 133.684C89.7456 134.98 102.586 138.882 99.8485 153.196C97.1114 167.51 86.2985 180.497 67.6429 179.63C48.9872 178.762 40.7759 160.974 52.4777 144.524Z" fill="url(#paint2_radial_5409_5199)"/>
<path d="M56.4834 146.79C62.4454 138.422 74.0333 136.953 80.3639 138.004C86.6945 139.056 97.1063 142.221 94.8841 153.814C92.6619 165.408 83.8815 175.944 68.7759 175.24C53.6704 174.535 46.9984 160.134 56.4834 146.79Z" fill="#190E09"/>
<path d="M84.9595 167.093C84.9595 167.093 83.3335 193.158 82.3037 210.02C81.2739 226.882 80.2821 228.171 83.3877 231.331C86.4934 234.491 87.9134 230.979 92.4771 234.843C97.0407 238.708 98.4391 239.413 105.122 240.464C111.805 241.516 118.13 248.659 109.691 249.83C101.252 251.001 95.3442 248.074 87.9676 250.182C80.591 252.29 69.48 249.32 61.7728 247.152C53.3392 244.768 46.4396 246.068 49.3555 242.491C52.2715 238.914 55.8108 236.437 64.3852 234.86C72.9596 233.283 72.9813 230.361 72.1954 217.684C71.4095 205.006 71.7727 187.408 68.2551 173.24C64.7375 159.072 85.4148 159.657 84.9595 167.093Z" fill="#FFBD45"/>
<path d="M94.2669 156.486C91.2805 166.979 82.7331 175.89 68.7929 175.245C57.3458 174.703 50.7497 166.324 52.3378 156.486C52.3378 156.486 57.5464 157.679 63.8715 158.73C70.1967 159.782 73.9419 162.974 79.7955 160.091C85.6491 157.207 87.3943 156.703 94.2669 156.486Z" fill="#FFBD45"/>
<path d="M53.8535 166.671C53.8535 166.671 55.7776 169.972 55.4253 177.701C55.073 185.43 57.886 189.625 59.9944 184.747C62.1028 179.869 61.745 168.92 61.745 168.92L53.8535 166.671Z" fill="#FFBD45"/>
<path d="M134.667 83.4678C138.179 89.4298 165.48 104.34 160.58 116.719C158.006 123.223 155.599 125.933 146.711 132.947C137.822 139.96 128.689 148.405 121.069 145.538C110.38 141.511 111.313 140.383 101.643 140.735C101.643 140.735 110.272 157.711 101.643 165.413C93.0146 173.115 89.8493 173.001 94.2449 176.735C98.6406 180.47 110.451 180.768 121.583 176.589C132.716 172.41 167.491 159.787 178.732 152.036C189.973 144.286 196.992 137.944 192.916 121.765C188.84 105.587 180.813 96.8335 180.813 96.8335L134.667 83.4678Z" fill="url(#paint3_radial_5409_5199)"/>
<path d="M205.376 36.7316C208.021 45.0838 199.885 53.1488 191.685 52.6935C183.485 52.2382 176.812 44.8399 176.812 36.1679C176.812 27.4959 183.463 20.8402 191.658 21.3009C199.853 21.7616 202.259 26.981 205.376 36.7316Z" fill="#B86B3E"/>
<path d="M199.685 41.387C197.897 35.8531 196.352 32.883 191.556 32.6174C189.572 32.5189 187.616 33.1142 186.023 34.301C184.431 35.4879 183.302 37.1923 182.829 39.1214C182.598 38.2661 182.482 37.384 182.482 36.4981C182.482 31.1974 186.547 27.1324 191.556 27.4142C196.564 27.696 198.06 30.8776 199.913 36.8342C200.386 38.33 200.305 39.9457 199.685 41.387Z" fill="#6F4026"/>
<path d="M80.8738 29.8096C78.2288 37.8692 86.3643 46.8393 94.5647 47.2946C102.765 47.7498 109.41 41.0941 109.41 32.4275C109.41 23.7609 102.76 16.3572 94.5647 15.9019C86.3697 15.4466 83.9686 20.3897 80.8738 29.8096Z" fill="url(#paint4_radial_5409_5199)"/>
<path d="M86.5371 35.0891C88.3257 29.7504 89.8704 26.9591 94.6671 27.2246C98.8188 27.4523 102.32 30.6013 103.393 34.6934C103.621 33.8487 103.736 32.9775 103.735 32.1026C103.735 26.8019 99.6751 22.287 94.6671 22.0106C89.659 21.7342 88.1902 24.7531 86.3094 30.4983C85.8373 32.007 85.918 33.6345 86.5371 35.0891Z" fill="#6F4026"/>
<path d="M140.96 116.368C140.96 116.368 115.74 114.493 102.478 103.452C89.2148 92.4114 88.082 80.146 90.96 61.3548C93.838 42.5637 99.1442 35.1166 105.995 28.0056C112.846 20.8945 134.374 18.1086 144.092 18.6506C153.81 19.1926 176.867 21.9026 183.734 29.7562C190.601 37.6098 194.363 48.1463 197.246 67.2789C200.13 86.4115 199.019 98.5252 185.729 108.086C172.439 117.647 147.22 116.715 147.22 116.715L140.96 116.368Z" fill="url(#paint5_radial_5409_5199)"/>
<path d="M117.78 64.2583C122.418 62.4508 124.595 56.9225 122.642 51.9105C120.689 46.8985 115.345 44.3007 110.707 46.1082C106.069 47.9156 103.892 53.4439 105.845 58.4559C107.798 63.4679 113.141 66.0657 117.78 64.2583Z" fill="#190E09"/>
<path d="M111.889 61.9426C113.563 61.2905 114.347 59.2945 113.642 57.4844C112.937 55.6742 111.008 54.7355 109.335 55.3876C107.661 56.0397 106.877 58.0358 107.582 59.8459C108.287 61.656 110.216 62.5948 111.889 61.9426Z" fill="white"/>
<path d="M161.748 66.7065C166.387 64.8991 168.563 59.3708 166.61 54.3588C164.657 49.3468 159.314 46.749 154.676 48.5564C150.037 50.3639 147.861 55.8921 149.814 60.9041C151.767 65.9162 157.11 68.514 161.748 66.7065Z" fill="#190E09"/>
<path d="M155.948 64.2932C157.621 63.6411 158.406 61.6451 157.701 59.8349C156.995 58.0248 155.067 57.0861 153.393 57.7382C151.72 58.3903 150.935 60.3863 151.64 62.1965C152.346 64.0066 154.274 64.9453 155.948 64.2932Z" fill="white"/>
<path d="M161.514 97.4746C166.437 84.689 159.103 69.9635 145.133 64.5841C131.163 59.2047 115.847 65.2086 110.924 77.9942C106.001 90.7798 113.335 105.505 127.305 110.885C141.275 116.264 156.591 110.26 161.514 97.4746Z" fill="#6F4026"/>
<path d="M145.918 73.7123V74.7963C145.967 79.3413 144.213 83.7205 141.04 86.9751C140.617 87.4007 140.108 87.7314 139.548 87.9454C138.987 88.1594 138.387 88.2517 137.788 88.2162L132.13 87.9019C131.507 87.8587 130.9 87.6928 130.341 87.4137C129.783 87.1347 129.286 86.748 128.878 86.2759C125.745 82.7723 124.009 78.2392 124 73.5389V72.4982C123.986 72.1372 124.047 71.7773 124.178 71.4406C124.309 71.104 124.508 70.7977 124.762 70.5408C125.016 70.2838 125.319 70.0816 125.654 69.9466C125.99 69.8115 126.349 69.7466 126.71 69.7557L143.154 70.6717C143.913 70.7372 144.62 71.0868 145.132 71.6505C145.644 72.2142 145.925 72.9505 145.918 73.7123Z" fill="#190E09"/>
<path d="M134.953 99.5495C134.953 99.5495 138.308 99.9668 140.769 98.4655C142.937 97.1484 143.755 94.0645 143.755 94.0645" stroke="#190E09" stroke-width="5.02" stroke-linecap="square" stroke-linejoin="bevel"/>
<path d="M145.918 73.831V74.8824C145.924 76.7768 145.626 78.6599 145.035 80.4596C143.506 79.8526 141.609 79.7062 140.157 81.6791C138.037 84.6005 139.1 86.9365 139.761 87.9284C139.137 88.2204 138.449 88.3509 137.761 88.3078L132.102 87.9934C131.468 87.9571 130.849 87.7852 130.287 87.4894C130.937 86.6384 132.14 84.362 129.951 81.11C128.449 78.877 126.433 78.8987 124.872 79.4136C124.273 77.5518 123.967 75.608 123.967 73.6521V72.6277C123.962 72.2084 124.051 71.7933 124.229 71.4133C124.406 71.0332 124.667 70.6981 124.991 70.4326C125.967 71.3865 128.579 73.0993 135.051 73.5166C141.262 73.8093 143.923 72.5139 144.986 71.6575C145.572 72.23 145.907 73.0116 145.918 73.831Z" fill="url(#paint6_radial_5409_5199)"/>
<defs>
<radialGradient id="paint0_radial_5409_5199" cx="0" cy="0" r="1" gradientUnits="userSpaceOnUse" gradientTransform="translate(45.9408 73.3707) scale(299.58 299.58)">
<stop stop-color="#6F4026"/>
<stop offset="0.52" stop-color="#B86B3E"/>
<stop offset="0.62" stop-color="#BD7043"/>
<stop offset="0.74" stop-color="#CB7D50"/>
<stop offset="0.87" stop-color="#E29466"/>
<stop offset="0.92" stop-color="#ED9F71"/>
</radialGradient>
<radialGradient id="paint1_radial_5409_5199" cx="0" cy="0" r="1" gradientUnits="userSpaceOnUse" gradientTransform="translate(84.7 178.052) scale(87.3216 87.3216)">
<stop offset="0.18" stop-color="#954026"/>
<stop offset="0.4" stop-color="#CD6B3E"/>
<stop offset="0.49" stop-color="#D27246"/>
<stop offset="0.62" stop-color="#E0865C"/>
<stop offset="0.72" stop-color="#ED9871"/>
</radialGradient>
<radialGradient id="paint2_radial_5409_5199" cx="0" cy="0" r="1" gradientUnits="userSpaceOnUse" gradientTransform="translate(76.7376 170.557) scale(39.7774 39.7774)">
<stop offset="0.18" stop-color="#954026"/>
<stop offset="0.4" stop-color="#CD6B3E"/>
<stop offset="0.49" stop-color="#D27246"/>
<stop offset="0.62" stop-color="#E0865C"/>
<stop offset="0.72" stop-color="#ED9871"/>
</radialGradient>
<radialGradient id="paint3_radial_5409_5199" cx="0" cy="0" r="1" gradientUnits="userSpaceOnUse" gradientTransform="translate(104.375 109.668) scale(112.579 112.579)">
<stop offset="0.42" stop-color="#B86B3E"/>
<stop offset="0.57" stop-color="#C07346"/>
<stop offset="0.79" stop-color="#D6895B"/>
<stop offset="0.97" stop-color="#ED9F71"/>
</radialGradient>
<radialGradient id="paint4_radial_5409_5199" cx="0" cy="0" r="1" gradientUnits="userSpaceOnUse" gradientTransform="translate(152.775 75.7609) rotate(3.01279) scale(104.659 109.863)">
<stop offset="0.48" stop-color="#764428"/>
<stop offset="0.67" stop-color="#B86B3E"/>
<stop offset="0.76" stop-color="#C07346"/>
<stop offset="0.89" stop-color="#D6895B"/>
<stop offset="1" stop-color="#ED9F71"/>
</radialGradient>
<radialGradient id="paint5_radial_5409_5199" cx="0" cy="0" r="1" gradientUnits="userSpaceOnUse" gradientTransform="translate(46.7618 30.0091) rotate(3.01279) scale(205.142 215.342)">
<stop offset="0.33" stop-color="#B86B3E"/>
<stop offset="0.5" stop-color="#C07346"/>
<stop offset="0.76" stop-color="#D6895B"/>
<stop offset="0.97" stop-color="#ED9F71"/>
</radialGradient>
<radialGradient id="paint6_radial_5409_5199" cx="0" cy="0" r="1" gradientUnits="userSpaceOnUse" gradientTransform="translate(134.083 60.6799) rotate(3.01279) scale(26.1003 27.3981)">
<stop stop-color="#6F4026"/>
<stop offset="1" stop-color="#190E09"/>
</radialGradient>
</defs>
</svg>
