<svg width="45" height="51" viewBox="0 0 45 51" fill="none" xmlns="http://www.w3.org/2000/svg">
<path d="M26.5429 2.17033C23.9891 0.674765 20.8284 0.66825 18.2685 2.15327L4.30909 10.2513C1.77544 11.7211 0.215959 14.4287 0.215959 17.3578V33.6422C0.215959 36.5713 1.77544 39.2789 4.30909 40.7487L18.2685 48.8467C20.8284 50.3317 23.9891 50.3252 26.5429 48.8297L40.3332 40.7536C42.8503 39.2795 44.3971 36.5812 44.3971 33.6642V17.3358C44.3971 14.4188 42.8503 11.7205 40.3332 10.2464L26.5429 2.17033Z" fill="#F2BB5A" fill-opacity="0.1"/>
<path d="M26.5429 2.17033C23.9891 0.674765 20.8284 0.66825 18.2685 2.15327L4.30909 10.2513C1.77544 11.7211 0.215959 14.4287 0.215959 17.3578V33.6422C0.215959 36.5713 1.77544 39.2789 4.30909 40.7487L18.2685 48.8467C20.8284 50.3317 23.9891 50.3252 26.5429 48.8297L40.3332 40.7536C42.8503 39.2795 44.3971 36.5812 44.3971 33.6642V17.3358C44.3971 14.4188 42.8503 11.7205 40.3332 10.2464L26.5429 2.17033Z" stroke="url(#paint0_radial_5408_4876)" stroke-width="0.431364"/>
<path d="M26.5429 2.17033C23.9891 0.674765 20.8284 0.66825 18.2685 2.15327L4.30909 10.2513C1.77544 11.7211 0.215959 14.4287 0.215959 17.3578V33.6422C0.215959 36.5713 1.77544 39.2789 4.30909 40.7487L18.2685 48.8467C20.8284 50.3317 23.9891 50.3252 26.5429 48.8297L40.3332 40.7536C42.8503 39.2795 44.3971 36.5812 44.3971 33.6642V17.3358C44.3971 14.4188 42.8503 11.7205 40.3332 10.2464L26.5429 2.17033Z" stroke="url(#paint1_radial_5408_4876)" stroke-width="0.431364"/>
<path d="M29.5768 18.33C28.2468 17.71 26.8068 17.26 25.3068 17C25.2936 16.9996 25.2805 17.0021 25.2684 17.0073C25.2563 17.0125 25.2455 17.0202 25.2368 17.03C25.0568 17.36 24.8468 17.79 24.7068 18.12C23.1158 17.88 21.4978 17.88 19.9068 18.12C19.7668 17.78 19.5568 17.36 19.3668 17.03C19.3568 17.01 19.3268 17 19.2968 17C17.7968 17.26 16.3668 17.71 15.0268 18.33C15.0168 18.33 15.0068 18.34 14.9968 18.35C12.2768 22.42 11.5268 26.38 11.8968 30.3C11.8968 30.32 11.9068 30.34 11.9268 30.35C13.7268 31.67 15.4568 32.47 17.1668 33C17.1968 33.01 17.2268 33 17.2368 32.98C17.6368 32.43 17.9968 31.85 18.3068 31.24C18.3268 31.2 18.3068 31.16 18.2668 31.15C17.6968 30.93 17.1568 30.67 16.6268 30.37C16.5868 30.35 16.5868 30.29 16.6168 30.26C16.7268 30.18 16.8368 30.09 16.9468 30.01C16.9668 29.99 16.9968 29.99 17.0168 30C20.4568 31.57 24.1668 31.57 27.5668 30C27.5868 29.99 27.6168 29.99 27.6368 30.01C27.7468 30.1 27.8568 30.18 27.9668 30.27C28.0068 30.3 28.0068 30.36 27.9568 30.38C27.4368 30.69 26.8868 30.94 26.3168 31.16C26.2768 31.17 26.2668 31.22 26.2768 31.25C26.5968 31.86 26.9568 32.44 27.3468 32.99C27.3768 33 27.4068 33.01 27.4368 33C29.1568 32.47 30.8868 31.67 32.6868 30.35C32.7068 30.34 32.7168 30.32 32.7168 30.3C33.1568 25.77 31.9868 21.84 29.6168 18.35C29.6068 18.34 29.5968 18.33 29.5768 18.33ZM18.8268 27.91C17.7968 27.91 16.9368 26.96 16.9368 25.79C16.9368 24.62 17.7768 23.67 18.8268 23.67C19.8868 23.67 20.7268 24.63 20.7168 25.79C20.7168 26.96 19.8768 27.91 18.8268 27.91ZM25.7968 27.91C24.7668 27.91 23.9068 26.96 23.9068 25.79C23.9068 24.62 24.7468 23.67 25.7968 23.67C26.8568 23.67 27.6968 24.63 27.6868 25.79C27.6868 26.96 26.8568 27.91 25.7968 27.91Z" fill="url(#paint2_linear_5408_4876)" fill-opacity="0.876812"/>
<defs>
<radialGradient id="paint0_radial_5408_4876" cx="0" cy="0" r="1" gradientUnits="userSpaceOnUse" gradientTransform="translate(-2.29168 0.906667) rotate(55.7174) scale(31.6389 42.0644)">
<stop stop-color="#FFE195"/>
<stop offset="0.177083" stop-color="#F2BB5A" stop-opacity="0.876812"/>
<stop offset="0.359375" stop-color="#BF7A00" stop-opacity="0.75"/>
<stop offset="1" stop-color="#BF7A00" stop-opacity="0"/>
<stop offset="1" stop-color="#0F1218" stop-opacity="0"/>
</radialGradient>
<radialGradient id="paint1_radial_5408_4876" cx="0" cy="0" r="1" gradientUnits="userSpaceOnUse" gradientTransform="translate(122.327 37.0112) rotate(-149.306) scale(29.3569 29.2171)">
<stop stop-color="#FFE195"/>
<stop offset="0.166667" stop-color="#F2BB5A" stop-opacity="0.8"/>
<stop offset="0.328125" stop-color="#BF7A00" stop-opacity="0.75"/>
<stop offset="1" stop-color="#0B0B0B" stop-opacity="0"/>
</radialGradient>
<linearGradient id="paint2_linear_5408_4876" x1="22.3083" y1="17" x2="22.3083" y2="33.0042" gradientUnits="userSpaceOnUse">
<stop stop-color="#FFBA41"/>
<stop offset="1" stop-color="#FFFBBD"/>
</linearGradient>
</defs>
</svg>
