<svg width="501" height="77" viewBox="0 0 501 77" fill="none" xmlns="http://www.w3.org/2000/svg">
<rect x="1" y="1.35938" width="499" height="75" rx="15.5" fill="#1D1915"/>
<rect x="1" y="1.35938" width="499" height="75" rx="15.5" stroke="url(#paint0_radial_5405_3332)"/>
<rect x="1" y="1.35938" width="499" height="75" rx="15.5" stroke="url(#paint1_radial_5405_3332)"/>
<path d="M25.48 43.8594V33.7794H31.78V34.7664H26.509V38.2524H30.94V39.2394H26.509V42.8724H31.78V43.8594H25.48ZM38.9244 43.8594V40.0024C38.9244 39.5824 38.8847 39.1974 38.8054 38.8474C38.726 38.4927 38.5977 38.1847 38.4204 37.9234C38.2477 37.6574 38.0214 37.452 37.7414 37.3074C37.466 37.1627 37.13 37.0904 36.7334 37.0904C36.3694 37.0904 36.0474 37.1534 35.7674 37.2794C35.492 37.4054 35.2587 37.5874 35.0674 37.8254C34.8807 38.0587 34.7384 38.3434 34.6404 38.6794C34.5424 39.0154 34.4934 39.398 34.4934 39.8274L33.7654 39.6664C33.7654 38.8917 33.9007 38.2407 34.1714 37.7134C34.442 37.186 34.8154 36.787 35.2914 36.5164C35.7674 36.2457 36.3134 36.1104 36.9294 36.1104C37.382 36.1104 37.7764 36.1804 38.1124 36.3204C38.453 36.4604 38.74 36.6494 38.9734 36.8874C39.2114 37.1254 39.4027 37.3984 39.5474 37.7064C39.692 38.0097 39.797 38.334 39.8624 38.6794C39.9277 39.02 39.9604 39.3607 39.9604 39.7014V43.8594H38.9244ZM33.4574 43.8594V36.2994H34.3884V38.1614H34.4934V43.8594H33.4574ZM45.8929 43.8594C45.4682 43.948 45.0482 43.983 44.6329 43.9644C44.2222 43.9457 43.8535 43.857 43.5269 43.6984C43.2049 43.5397 42.9599 43.2924 42.7919 42.9564C42.6565 42.6764 42.5819 42.394 42.5679 42.1094C42.5585 41.82 42.5539 41.491 42.5539 41.1224V34.1994H43.5759V41.0804C43.5759 41.3977 43.5782 41.6637 43.5829 41.8784C43.5922 42.0884 43.6412 42.275 43.7299 42.4384C43.8979 42.751 44.1639 42.9377 44.5279 42.9984C44.8965 43.059 45.3515 43.045 45.8929 42.9564V43.8594ZM40.9369 37.1814V36.2994H45.8929V37.1814H40.9369ZM50.3079 44.0694C49.5706 44.0694 48.9312 43.906 48.3899 43.5794C47.8532 43.2527 47.4356 42.793 47.1369 42.2004C46.8382 41.6077 46.6889 40.9124 46.6889 40.1144C46.6889 39.2884 46.8359 38.5744 47.1299 37.9724C47.4239 37.3704 47.8369 36.906 48.3689 36.5794C48.9056 36.2527 49.5379 36.0894 50.2659 36.0894C51.0126 36.0894 51.6496 36.262 52.1769 36.6074C52.7042 36.948 53.1032 37.438 53.3739 38.0774C53.6446 38.7167 53.7682 39.4797 53.7449 40.3664H52.6949V40.0024C52.6762 39.0224 52.4639 38.2827 52.0579 37.7834C51.6566 37.284 51.0686 37.0344 50.2939 37.0344C49.4819 37.0344 48.8589 37.298 48.4249 37.8254C47.9956 38.3527 47.7809 39.104 47.7809 40.0794C47.7809 41.0314 47.9956 41.771 48.4249 42.2984C48.8589 42.821 49.4726 43.0824 50.2659 43.0824C50.8072 43.0824 51.2786 42.9587 51.6799 42.7114C52.0859 42.4594 52.4056 42.0977 52.6389 41.6264L53.5979 41.9974C53.2992 42.6554 52.8582 43.1664 52.2749 43.5304C51.6962 43.8897 51.0406 44.0694 50.3079 44.0694ZM47.4169 40.3664V39.5054H53.1919V40.3664H47.4169ZM55.2984 43.8594V36.2994H56.2224V38.1194L56.0404 37.8814C56.1244 37.6574 56.234 37.452 56.3694 37.2654C56.5047 37.074 56.6517 36.9177 56.8104 36.7964C57.0064 36.6237 57.235 36.493 57.4964 36.4044C57.7577 36.311 58.0214 36.2574 58.2874 36.2434C58.5534 36.2247 58.796 36.2434 59.0154 36.2994V37.2654C58.74 37.1954 58.439 37.179 58.1124 37.2164C57.7857 37.2537 57.4847 37.3844 57.2094 37.6084C56.9574 37.8044 56.7684 38.04 56.6424 38.3154C56.5164 38.586 56.4324 38.8754 56.3904 39.1834C56.3484 39.4867 56.3274 39.7877 56.3274 40.0864V43.8594H55.2984ZM62.446 43.8594L65.918 33.7794H67.283L70.755 43.8594H69.684L66.387 34.3534H66.793L63.517 43.8594H62.446ZM63.993 41.4164V40.4504H69.201V41.4164H63.993ZM81.0351 43.8594L81.0421 38.8964C81.0421 38.313 80.8787 37.8557 80.5521 37.5244C80.2301 37.1884 79.8194 37.0204 79.3201 37.0204C79.0354 37.0204 78.7577 37.0857 78.4871 37.2164C78.2164 37.347 77.9924 37.557 77.8151 37.8464C77.6424 38.1357 77.5561 38.5137 77.5561 38.9804L76.9471 38.8054C76.9331 38.264 77.0381 37.7904 77.2621 37.3844C77.4907 36.9784 77.8034 36.6634 78.2001 36.4394C78.6014 36.2107 79.0541 36.0964 79.5581 36.0964C80.3187 36.0964 80.9277 36.332 81.3851 36.8034C81.8424 37.27 82.0711 37.9024 82.0711 38.7004L82.0641 43.8594H81.0351ZM72.0121 43.8594V36.2994H72.9361V38.1614H73.0481V43.8594H72.0121ZM76.5341 43.8594L76.5411 38.9664C76.5411 38.3644 76.3801 37.8907 76.0581 37.5454C75.7407 37.1954 75.3207 37.0204 74.7981 37.0204C74.2754 37.0204 73.8531 37.2 73.5311 37.5594C73.2091 37.914 73.0481 38.3877 73.0481 38.9804L72.4321 38.6444C72.4321 38.159 72.5464 37.725 72.7751 37.3424C73.0037 36.955 73.3164 36.6517 73.7131 36.4324C74.1097 36.2084 74.5601 36.0964 75.0641 36.0964C75.5447 36.0964 75.9717 36.199 76.3451 36.4044C76.7231 36.6097 77.0194 36.9084 77.2341 37.3004C77.4487 37.6924 77.5561 38.1684 77.5561 38.7284L77.5491 43.8594H76.5341ZM86.9886 44.0694C86.2372 44.0694 85.5956 43.899 85.0636 43.5584C84.5316 43.2177 84.1232 42.7464 83.8386 42.1444C83.5539 41.5424 83.4116 40.8517 83.4116 40.0724C83.4116 39.279 83.5562 38.5837 83.8456 37.9864C84.1349 37.389 84.5456 36.9247 85.0776 36.5934C85.6142 36.2574 86.2512 36.0894 86.9886 36.0894C87.7446 36.0894 88.3886 36.2597 88.9206 36.6004C89.4572 36.9364 89.8656 37.4054 90.1456 38.0074C90.4302 38.6047 90.5726 39.293 90.5726 40.0724C90.5726 40.8657 90.4302 41.5634 90.1456 42.1654C89.8609 42.7627 89.4502 43.2294 88.9136 43.5654C88.3769 43.9014 87.7352 44.0694 86.9886 44.0694ZM86.9886 43.0824C87.8286 43.0824 88.4539 42.8047 88.8646 42.2494C89.2752 41.6894 89.4806 40.9637 89.4806 40.0724C89.4806 39.1577 89.2729 38.4297 88.8576 37.8884C88.4469 37.347 87.8239 37.0764 86.9886 37.0764C86.4239 37.0764 85.9572 37.2047 85.5886 37.4614C85.2246 37.7134 84.9516 38.0657 84.7696 38.5184C84.5922 38.9664 84.5036 39.4844 84.5036 40.0724C84.5036 40.9824 84.7136 41.7127 85.1336 42.2634C85.5536 42.8094 86.1719 43.0824 86.9886 43.0824ZM95.0077 44.0484C94.5551 44.0484 94.1584 43.9784 93.8177 43.8384C93.4817 43.6984 93.1947 43.5094 92.9567 43.2714C92.7234 43.0334 92.5344 42.7627 92.3897 42.4594C92.2451 42.1514 92.1401 41.827 92.0747 41.4864C92.0094 41.141 91.9767 40.798 91.9767 40.4574V36.2994H93.0127V40.1564C93.0127 40.5717 93.0524 40.9567 93.1317 41.3114C93.2111 41.666 93.3371 41.9764 93.5097 42.2424C93.6871 42.5037 93.9134 42.7067 94.1887 42.8514C94.4687 42.996 94.8071 43.0684 95.2037 43.0684C95.5677 43.0684 95.8874 43.0054 96.1627 42.8794C96.4427 42.7534 96.6761 42.5737 96.8627 42.3404C97.0541 42.1024 97.1987 41.8154 97.2967 41.4794C97.3947 41.1387 97.4437 40.756 97.4437 40.3314L98.1717 40.4924C98.1717 41.267 98.0364 41.918 97.7657 42.4454C97.4951 42.9727 97.1217 43.3717 96.6457 43.6424C96.1697 43.913 95.6237 44.0484 95.0077 44.0484ZM97.5487 43.8594V41.9974H97.4437V36.2994H98.4727V43.8594H97.5487ZM105.889 43.8594V40.0024C105.889 39.5824 105.85 39.1974 105.77 38.8474C105.691 38.4927 105.563 38.1847 105.385 37.9234C105.213 37.6574 104.986 37.452 104.706 37.3074C104.431 37.1627 104.095 37.0904 103.698 37.0904C103.334 37.0904 103.012 37.1534 102.732 37.2794C102.457 37.4054 102.224 37.5874 102.032 37.8254C101.846 38.0587 101.703 38.3434 101.605 38.6794C101.507 39.0154 101.458 39.398 101.458 39.8274L100.73 39.6664C100.73 38.8917 100.866 38.2407 101.136 37.7134C101.407 37.186 101.78 36.787 102.256 36.5164C102.732 36.2457 103.278 36.1104 103.894 36.1104C104.347 36.1104 104.741 36.1804 105.077 36.3204C105.418 36.4604 105.705 36.6494 105.938 36.8874C106.176 37.1254 106.368 37.3984 106.512 37.7064C106.657 38.0097 106.762 38.334 106.827 38.6794C106.893 39.02 106.925 39.3607 106.925 39.7014V43.8594H105.889ZM100.422 43.8594V36.2994H101.353V38.1614H101.458V43.8594H100.422ZM112.858 43.8594C112.433 43.948 112.013 43.983 111.598 43.9644C111.187 43.9457 110.818 43.857 110.492 43.6984C110.17 43.5397 109.925 43.2924 109.757 42.9564C109.621 42.6764 109.547 42.394 109.533 42.1094C109.523 41.82 109.519 41.491 109.519 41.1224V34.1994H110.541V41.0804C110.541 41.3977 110.543 41.6637 110.548 41.8784C110.557 42.0884 110.606 42.275 110.695 42.4384C110.863 42.751 111.129 42.9377 111.493 42.9984C111.861 43.059 112.316 43.045 112.858 42.9564V43.8594ZM107.902 37.1814V36.2994H112.858V37.1814H107.902ZM114.543 43.8594V42.6624H115.74V43.8594H114.543ZM118.098 43.8594V42.6624H119.295V43.8594H118.098ZM121.653 43.8594V42.6624H122.85V43.8594H121.653Z" fill="white" fill-opacity="0.5"/>
<rect x="434.5" y="26.8594" width="42" height="24" rx="8" fill="#FEF08A"/>
<path d="M443.34 43.8594V35.2194H444.474L447.606 41.7174L450.72 35.2194H451.866V43.8534H450.678V37.9434L447.888 43.8594H447.318L444.522 37.9434V43.8594H443.34ZM452.947 43.8594L455.755 35.2194H457.561L460.369 43.8594H459.067L456.481 35.9754H456.805L454.249 43.8594H452.947ZM454.405 41.9094V40.7334H458.917V41.9094H454.405ZM460.725 43.8594L463.671 39.4854L460.803 35.2194H462.339L464.445 38.4234L466.539 35.2194H468.081L465.213 39.4854L468.153 43.8594H466.617L464.445 40.5534L462.267 43.8594H460.725Z" fill="#F95F74"/>
<defs>
<radialGradient id="paint0_radial_5405_3332" cx="0" cy="0" r="1" gradientUnits="userSpaceOnUse" gradientTransform="translate(7.16667 2.21049) rotate(12.5116) scale(179.826 108.642)">
<stop stop-color="#FFE195"/>
<stop offset="0.177083" stop-color="#F2BB5A" stop-opacity="0.876812"/>
<stop offset="0.359375" stop-color="#BF7A00" stop-opacity="0.75"/>
<stop offset="1" stop-color="#BF7A00" stop-opacity="0"/>
<stop offset="1" stop-color="#0F1218" stop-opacity="0"/>
</radialGradient>
<radialGradient id="paint1_radial_5405_3332" cx="0" cy="0" r="1" gradientUnits="userSpaceOnUse" gradientTransform="translate(461.548 56.9987) rotate(-175.051) scale(211.127 41.8866)">
<stop stop-color="#FFE195"/>
<stop offset="0.166667" stop-color="#F2BB5A" stop-opacity="0.8"/>
<stop offset="0.328125" stop-color="#BF7A00" stop-opacity="0.75"/>
<stop offset="1" stop-color="#0B0B0B" stop-opacity="0"/>
</radialGradient>
</defs>
</svg>
