<svg width="17" height="17" viewBox="0 0 17 17" fill="none" xmlns="http://www.w3.org/2000/svg">
<path d="M8.5 16.8594C12.9334 16.8594 16.5 13.2927 16.5 8.85938C16.5 4.42602 12.9334 0.859375 8.5 0.859375C4.06664 0.859375 0.5 4.42602 0.5 8.85938C0.5 13.2927 4.06664 16.8594 8.5 16.8594Z" fill="#2775CA"/>
<path d="M10.6991 10.1258C10.6991 8.95914 9.99906 8.55914 8.59906 8.3925C7.59906 8.25914 7.39906 7.9925 7.39906 7.52578C7.39906 7.05906 7.73242 6.75914 8.39906 6.75914C8.99906 6.75914 9.33242 6.95914 9.49906 7.45914C9.53242 7.55914 9.63242 7.62578 9.73242 7.62578H10.2657C10.3991 7.62578 10.4991 7.52578 10.4991 7.3925V7.35914C10.3657 6.62578 9.7657 6.05914 8.99906 5.9925V5.1925C8.99906 5.05914 8.89906 4.95914 8.73242 4.92578H8.23242C8.09906 4.92578 7.99906 5.02578 7.9657 5.1925V5.95914C6.9657 6.0925 6.33242 6.75914 6.33242 7.5925C6.33242 8.6925 6.99906 9.12578 8.39906 9.2925C9.33242 9.45914 9.63242 9.65914 9.63242 10.1925C9.63242 10.7259 9.1657 11.0925 8.53242 11.0925C7.6657 11.0925 7.3657 10.7258 7.2657 10.2258C7.23242 10.0925 7.13242 10.0258 7.03242 10.0258H6.4657C6.33242 10.0258 6.23242 10.1258 6.23242 10.2591V10.2925C6.3657 11.1258 6.89906 11.7258 7.99906 11.8925V12.6925C7.99906 12.8258 8.09906 12.9258 8.2657 12.9591H8.7657C8.89906 12.9591 8.99906 12.8591 9.03242 12.6925V11.8925C10.0324 11.7258 10.6991 11.0258 10.6991 10.1258Z" fill="white"/>
<path fill-rule="evenodd" clip-rule="evenodd" d="M3.83401 7.22566C2.86729 9.79238 4.20065 12.6924 6.80065 13.6257C6.90065 13.6924 7.00065 13.8257 7.00065 13.9257V14.3924C7.00065 14.459 7.00065 14.4924 6.96729 14.5257C6.93401 14.659 6.80065 14.7257 6.66729 14.659C4.80065 14.059 3.36729 12.6257 2.76729 10.759C1.76729 7.59238 3.50065 4.22566 6.66729 3.22566C6.70065 3.19238 6.76729 3.19238 6.80065 3.19238C6.93401 3.22566 7.00065 3.32566 7.00065 3.45902V3.92566C7.00065 4.09238 6.93401 4.19238 6.80065 4.25902C5.43401 4.75902 4.33401 5.82566 3.83401 7.22566ZM10.034 3.35902C10.0673 3.22566 10.2007 3.15902 10.334 3.22566C12.1673 3.82566 13.634 5.25902 14.234 7.15902C15.234 10.3257 13.5007 13.6924 10.334 14.6924C10.3007 14.7257 10.234 14.7257 10.2007 14.7257C10.0673 14.6924 10.0007 14.5924 10.0007 14.459V13.9924C10.0007 13.8257 10.0673 13.7257 10.2007 13.659C11.5673 13.159 12.6673 12.0924 13.1673 10.6924C14.134 8.12566 12.8007 5.22566 10.2007 4.29238C10.1007 4.22566 10.0007 4.09238 10.0007 3.95902V3.49238C10.0007 3.42566 10.0007 3.39238 10.034 3.35902Z" fill="white"/>
</svg>
