<svg width="45" height="51" viewBox="0 0 45 51" fill="none" xmlns="http://www.w3.org/2000/svg">
<path d="M26.9315 2.17033C24.3778 0.674765 21.2171 0.66825 18.6572 2.15327L4.69776 10.2513C2.16411 11.7211 0.604631 14.4287 0.604631 17.3578V33.6422C0.604631 36.5713 2.16411 39.2789 4.69776 40.7487L18.6572 48.8467C21.2171 50.3317 24.3778 50.3252 26.9315 48.8297L40.7219 40.7536C43.239 39.2795 44.7857 36.5812 44.7857 33.6642V17.3358C44.7857 14.4188 43.239 11.7205 40.7219 10.2464L26.9315 2.17033Z" fill="#47331A"/>
<path d="M26.9315 2.17033C24.3778 0.674765 21.2171 0.66825 18.6572 2.15327L4.69776 10.2513C2.16411 11.7211 0.604631 14.4287 0.604631 17.3578V33.6422C0.604631 36.5713 2.16411 39.2789 4.69776 40.7487L18.6572 48.8467C21.2171 50.3317 24.3778 50.3252 26.9315 48.8297L40.7219 40.7536C43.239 39.2795 44.7857 36.5812 44.7857 33.6642V17.3358C44.7857 14.4188 43.239 11.7205 40.7219 10.2464L26.9315 2.17033Z" stroke="url(#paint0_radial_5405_3266)" stroke-width="0.431364"/>
<path d="M26.9315 2.17033C24.3778 0.674765 21.2171 0.66825 18.6572 2.15327L4.69776 10.2513C2.16411 11.7211 0.604631 14.4287 0.604631 17.3578V33.6422C0.604631 36.5713 2.16411 39.2789 4.69776 40.7487L18.6572 48.8467C21.2171 50.3317 24.3778 50.3252 26.9315 48.8297L40.7219 40.7536C43.239 39.2795 44.7857 36.5812 44.7857 33.6642V17.3358C44.7857 14.4188 43.239 11.7205 40.7219 10.2464L26.9315 2.17033Z" stroke="url(#paint1_radial_5405_3266)" stroke-width="0.431364"/>
<path d="M24.5762 23.7749L30.3746 17H29.0005L23.9658 22.8826L19.9446 17H15.3066L21.3875 25.8955L15.3066 33H16.6807L21.9975 26.7878L26.2442 33H30.8822L24.5762 23.7749ZM22.6942 25.9738L22.0781 25.0881L17.1759 18.0397H19.2864L23.2425 23.728L23.8587 24.6137L29.0012 32.0075H26.8907L22.6942 25.9738Z" fill="url(#paint2_linear_5405_3266)" fill-opacity="0.876812"/>
<defs>
<radialGradient id="paint0_radial_5405_3266" cx="0" cy="0" r="1" gradientUnits="userSpaceOnUse" gradientTransform="translate(-1.90301 0.906667) rotate(55.7174) scale(31.6389 42.0644)">
<stop stop-color="#FFE195"/>
<stop offset="0.177083" stop-color="#F2BB5A" stop-opacity="0.876812"/>
<stop offset="0.359375" stop-color="#BF7A00" stop-opacity="0.75"/>
<stop offset="1" stop-color="#BF7A00" stop-opacity="0"/>
<stop offset="1" stop-color="#0F1218" stop-opacity="0"/>
</radialGradient>
<radialGradient id="paint1_radial_5405_3266" cx="0" cy="0" r="1" gradientUnits="userSpaceOnUse" gradientTransform="translate(122.716 37.0112) rotate(-149.306) scale(29.3569 29.2171)">
<stop stop-color="#FFE195"/>
<stop offset="0.166667" stop-color="#F2BB5A" stop-opacity="0.8"/>
<stop offset="0.328125" stop-color="#BF7A00" stop-opacity="0.75"/>
<stop offset="1" stop-color="#0B0B0B" stop-opacity="0"/>
</radialGradient>
<linearGradient id="paint2_linear_5405_3266" x1="23.0944" y1="17" x2="23.0944" y2="33" gradientUnits="userSpaceOnUse">
<stop stop-color="#FFBA41"/>
<stop offset="1" stop-color="#FFFBBD"/>
</linearGradient>
</defs>
</svg>
